<?xml version="1.0" encoding="UTF-8" standalone="no"?>
<svg width="55px" height="67px" viewBox="0 0 55 67" version="1.1" xmlns="http://www.w3.org/2000/svg" xmlns:xlink="http://www.w3.org/1999/xlink" xmlns:sketch="http://www.bohemiancoding.com/sketch/ns">
    <title>Slice 1</title>
    <description>Created with Sketch (http://www.bohemiancoding.com/sketch)</description>
    <defs></defs>
    <g id="Page-1" stroke="none" stroke-width="1" fill="none" fill-rule="evenodd" sketch:type="MSPage">
        <g id="Imported-Layers" sketch:type="MSLayerGroup" fill="#FBBEB6">
            <path d="M28.172,7.126 C28.819,7.126 29.343,6.601 29.343,5.954 C29.343,5.307 28.819,4.783 28.172,4.783 L23.004,4.783 C22.357,4.783 21.832,5.307 21.832,5.954 C21.832,6.601 22.357,7.126 23.004,7.126 L28.172,7.126" id="Fill-1" sketch:type="MSShapeGroup"></path>
            <path d="M52.529,35.311 C51.385,34.286 49.902,33.634 48.308,33.22 L43.957,27.613 L43.957,4.722 C43.957,2.333 42.012,0.389 39.623,0.389 L11.554,0.389 C9.164,0.389 7.22,2.333 7.22,4.722 L7.22,12.906 C6.734,12.904 6.246,12.947 5.764,13.086 C4.431,13.467 3.317,14.346 2.629,15.559 C1.94,16.772 1.754,18.178 2.108,19.518 C2.465,20.872 3.328,21.996 4.535,22.68 L7.22,24.207 L7.22,25.145 L6.474,25.069 C5.172,24.771 3.829,24.984 2.673,25.683 C1.486,26.397 0.638,27.535 0.288,28.887 C-0.438,31.689 1.219,34.552 3.981,35.268 C4.034,35.282 4.088,35.293 4.142,35.301 L7.22,35.801 L7.22,36.061 L5.079,36.391 C2.262,36.862 0.359,39.567 0.836,42.423 C1.267,44.992 3.48,46.82 5.948,46.82 C6.222,46.82 6.498,46.798 6.777,46.752 L7.22,46.686 L7.22,54.952 C7.22,57.342 9.164,59.286 11.554,59.286 L12.484,59.286 C12.965,60.634 13.284,61.786 13.566,62.82 C13.858,63.895 14.135,64.91 14.539,65.924 C14.813,66.611 15.474,67.031 16.172,67.031 C16.389,67.031 16.609,66.99 16.823,66.906 C17.725,66.547 18.164,65.523 17.805,64.622 C17.475,63.795 17.235,62.915 16.957,61.897 C16.742,61.106 16.501,60.244 16.195,59.286 L31.774,59.286 C32.745,59.286 33.531,58.499 33.531,57.529 C33.531,56.559 32.745,55.771 31.774,55.771 L11.554,55.771 C11.102,55.771 10.735,55.404 10.735,54.952 L10.735,4.722 C10.735,4.272 11.102,3.904 11.554,3.904 L39.623,3.904 C40.074,3.904 40.442,4.272 40.442,4.722 L40.442,32.652 C39.772,32.691 39.169,32.744 38.643,32.797 L38.643,9.037 C38.643,8.39 38.118,7.865 37.471,7.865 L13.706,7.865 C13.059,7.865 12.534,8.39 12.534,9.037 L12.534,48.621 C12.534,49.269 13.059,49.793 13.706,49.793 L32.95,49.793 C32.656,50.431 32.435,51.106 32.33,51.821 C32.187,52.781 32.85,53.675 33.81,53.816 C34.775,53.975 35.665,53.297 35.807,52.336 C36.056,50.657 37.685,48.99 38.996,47.651 C40.088,46.535 40.951,45.652 41.194,44.617 C41.43,43.609 41.223,42.646 40.611,41.899 C39.451,40.483 37.258,40.381 36.345,40.35 C35.838,40.246 35.397,39.969 35.094,39.559 C34.783,39.139 34.655,38.628 34.732,38.117 C34.807,37.629 34.945,36.719 37.519,36.452 L37.929,36.406 C41.693,35.985 44.675,36.014 46.877,36.473 C46.898,36.478 46.92,36.481 46.941,36.484 C48.35,36.785 49.44,37.264 50.184,37.93 C50.954,38.619 51.312,39.495 51.31,40.685 C51.293,49.004 47.054,58.357 40.76,63.961 C40.036,64.606 39.971,65.717 40.617,66.441 C40.964,66.832 41.446,67.031 41.93,67.031 C42.346,67.031 42.763,66.885 43.098,66.586 C50.094,60.358 54.807,49.951 54.825,40.692 C54.829,38.521 54.036,36.66 52.529,35.311 L52.529,35.311 Z M6.271,19.624 C5.892,19.408 5.621,19.053 5.507,18.621 C5.389,18.175 5.452,17.705 5.685,17.294 C5.918,16.886 6.289,16.592 6.731,16.465 C6.894,16.418 7.057,16.42 7.22,16.423 L7.22,20.163 L6.271,19.624 L6.271,19.624 Z M4.799,31.847 C3.952,31.59 3.457,30.672 3.691,29.768 C3.809,29.313 4.091,28.932 4.486,28.694 C4.869,28.463 5.314,28.395 5.734,28.508 C5.822,28.529 5.911,28.546 6,28.555 L7.22,28.678 L7.22,32.239 L4.799,31.847 L4.799,31.847 Z M6.23,43.279 C5.331,43.436 4.461,42.786 4.303,41.843 C4.146,40.899 4.754,40.009 5.636,39.861 L7.22,39.617 L7.22,43.133 L6.23,43.279 L6.23,43.279 Z M31.257,37.589 C31.038,39.031 31.397,40.475 32.269,41.652 C33.158,42.852 34.469,43.632 35.959,43.85 C36.058,43.864 36.168,43.874 36.264,43.866 C36.703,43.867 37.228,43.922 37.582,44.02 C37.305,44.353 36.846,44.822 36.483,45.193 C35.845,45.846 35.114,46.602 34.439,47.45 L14.877,47.45 L14.877,10.209 L36.299,10.209 L36.299,33.077 C32.629,33.727 31.522,35.854 31.257,37.589 L31.257,37.589 Z" id="Fill-2" sketch:type="MSShapeGroup"></path>
            <path d="M17.652,22.516 L24.733,22.516 L24.733,15.435 L17.652,15.435 L17.652,22.516 Z M18.945,16.729 L23.441,16.729 L23.441,21.224 L18.945,21.224 L18.945,16.729 Z" id="Fill-3" sketch:type="MSShapeGroup"></path>
            <path d="M20.145,17.928 L22.242,17.928 L22.242,20.025 L20.145,20.025 L20.145,17.928 Z" id="Fill-4" sketch:type="MSShapeGroup"></path>
            <path d="M26.442,22.516 L33.523,22.516 L33.523,15.435 L26.442,15.435 L26.442,22.516 Z M27.735,16.729 L32.23,16.729 L32.23,21.224 L27.735,21.224 L27.735,16.729 Z" id="Fill-5" sketch:type="MSShapeGroup"></path>
            <path d="M28.935,17.928 L31.031,17.928 L31.031,20.025 L28.935,20.025 L28.935,17.928 Z" id="Fill-6" sketch:type="MSShapeGroup"></path>
            <path d="M17.652,30.934 L24.733,30.934 L24.733,23.853 L17.652,23.853 L17.652,30.934 Z M18.945,25.146 L23.441,25.146 L23.441,29.642 L18.945,29.642 L18.945,25.146 Z" id="Fill-7" sketch:type="MSShapeGroup"></path>
            <path d="M20.145,26.346 L22.242,26.346 L22.242,28.443 L20.145,28.443 L20.145,26.346 Z" id="Fill-8" sketch:type="MSShapeGroup"></path>
            <path d="M26.837,26.346 L28.934,26.346 L28.934,28.443 L26.837,28.443 L26.837,26.346 Z" id="Fill-9" sketch:type="MSShapeGroup"></path>
            <path d="M28.935,24.249 L31.032,24.249 L31.032,26.346 L28.935,26.346 L28.935,24.249 Z" id="Fill-10" sketch:type="MSShapeGroup"></path>
            <path d="M31.031,28.442 L28.935,28.442 L28.935,30.539 L33.127,30.539 L33.127,26.346 L31.031,26.346 L31.031,28.442" id="Fill-11" sketch:type="MSShapeGroup"></path>
        </g>
    </g>
</svg>