<?xml version="1.0" encoding="UTF-8" standalone="no"?>
<svg width="61px" height="59px" viewBox="0 0 61 59" version="1.1" xmlns="http://www.w3.org/2000/svg" xmlns:xlink="http://www.w3.org/1999/xlink" xmlns:sketch="http://www.bohemiancoding.com/sketch/ns">
    <title>Slice 1</title>
    <description>Created with Sketch (http://www.bohemiancoding.com/sketch)</description>
    <defs></defs>
    <g id="Page-1" stroke="none" stroke-width="1" fill="none" fill-rule="evenodd" sketch:type="MSPage">
        <g id="Imported-Layers" sketch:type="MSLayerGroup">
            <g id="over" fill="#007BB6" sketch:type="MSShapeGroup">
                <path d="M1.257,19.344 L14.053,19.344 L14.053,58.43 L1.257,58.43 L1.257,19.344 Z" id="Fill-1"></path>
                <path d="M14.896,7.251 C14.813,3.42 12.116,0.5 7.739,0.5 C3.362,0.5 0.5,3.42 0.5,7.251 C0.5,11.006 3.278,14.009 7.574,14.009 L7.655,14.009 C12.116,14.009 14.896,11.006 14.896,7.251" id="Fill-2"></path>
                <path d="M60.199,36.02 C60.199,24.013 53.887,18.425 45.467,18.425 C38.674,18.425 35.632,22.219 33.933,24.88 L33.933,19.345 L21.136,19.345 C21.305,23.012 21.136,58.432 21.136,58.432 L33.933,58.432 L33.933,36.603 C33.933,35.435 34.016,34.269 34.356,33.432 C35.278,31.098 37.387,28.682 40.92,28.682 C45.553,28.682 47.404,32.266 47.404,37.52 L47.404,58.43 L60.199,58.43 L60.199,36.02" id="Fill-3"></path>
            </g>
            <g id="footer"></g>
            <g id="grey" transform="translate(0.000000, 1.000000)"></g>
        </g>
    </g>
</svg>