<?xml version="1.0" encoding="UTF-8" standalone="no"?>
<svg width="47px" height="69px" viewBox="0 0 47 69" version="1.1" xmlns="http://www.w3.org/2000/svg" xmlns:xlink="http://www.w3.org/1999/xlink" xmlns:sketch="http://www.bohemiancoding.com/sketch/ns">
    <title>Slice 2</title>
    <description>Created with Sketch (http://www.bohemiancoding.com/sketch)</description>
    <defs></defs>
    <g id="Page-1" stroke="none" stroke-width="1" fill="none" fill-rule="evenodd" sketch:type="MSPage">
        <g id="Imported-Layers" sketch:type="MSLayerGroup" fill="#FBBEB6">
            <path d="M46.546,40.822 C46.513,37.7 44.171,35.169 41.297,35.169 C40.679,35.169 40.095,35.308 39.543,35.522 C39.446,32.75 37.145,30.522 34.312,30.522 C33.434,30.522 32.618,30.756 31.89,31.133 C30.99,29.552 29.294,28.469 27.329,28.469 C26.718,28.469 26.14,28.592 25.594,28.782 L25.594,20.787 C25.594,17.932 23.239,15.609 20.344,15.609 C17.45,15.609 15.095,17.932 15.095,20.787 L15.095,42.119 C12.106,42.262 9.749,43.944 9.082,46.657 C8.204,50.226 8.493,54.251 9.939,58.624 C11.029,61.917 13.56,65.225 17.677,68.738 C18.008,69.021 18.414,69.159 18.817,69.159 C19.314,69.159 19.807,68.949 20.155,68.542 C20.785,67.804 20.697,66.694 19.959,66.065 C16.395,63.023 14.146,60.147 13.277,57.521 C12.023,53.733 11.768,50.454 12.495,47.497 C12.793,46.287 13.874,45.731 15.095,45.626 L15.095,48.782 C15.095,49.752 15.882,50.539 16.853,50.539 C17.824,50.539 18.61,49.752 18.61,48.782 L18.61,20.787 C18.61,19.871 19.388,19.125 20.344,19.125 C21.301,19.125 22.079,19.871 22.079,20.787 L22.079,40.671 C22.079,41.642 22.866,42.429 23.837,42.429 C24.808,42.429 25.594,41.642 25.594,40.671 L25.594,33.647 C25.594,32.73 26.373,31.984 27.329,31.984 C28.285,31.984 29.063,32.73 29.063,33.647 L29.063,41.632 C29.063,42.602 29.85,43.39 30.821,43.39 C31.792,43.39 32.579,42.602 32.579,41.632 L32.579,35.7 C32.579,34.783 33.356,34.037 34.312,34.037 C35.269,34.037 36.046,34.783 36.046,35.7 L36.046,43.217 C36.046,44.188 36.833,44.975 37.804,44.975 C38.775,44.975 39.562,44.188 39.562,43.217 L39.562,40.89 C39.562,39.694 40.356,38.685 41.297,38.685 C42.237,38.685 43.031,39.694 43.031,40.89 C43.031,40.933 43.033,40.976 43.036,41.019 C43.047,41.169 44.082,56.097 39.245,66.67 C38.841,67.552 39.229,68.596 40.112,69 C40.349,69.108 40.598,69.159 40.842,69.159 C41.509,69.159 42.146,68.778 42.442,68.132 C47.539,56.991 46.632,42.064 46.546,40.822" id="Fill-1" sketch:type="MSShapeGroup"></path>
            <path d="M12.245,20.713 C12.245,19.743 11.458,18.955 10.487,18.955 L1.855,18.955 C0.884,18.955 0.097,19.743 0.097,20.713 C0.097,21.683 0.884,22.47 1.855,22.47 L10.487,22.47 C11.458,22.47 12.245,21.683 12.245,20.713" id="Fill-2" sketch:type="MSShapeGroup"></path>
            <path d="M28.445,20.713 C28.445,21.683 29.232,22.47 30.203,22.47 L38.835,22.47 C39.806,22.47 40.593,21.683 40.593,20.713 C40.593,19.743 39.806,18.955 38.835,18.955 L30.203,18.955 C29.232,18.955 28.445,19.743 28.445,20.713" id="Fill-3" sketch:type="MSShapeGroup"></path>
            <path d="M20.345,12.611 C21.316,12.611 22.103,11.824 22.103,10.854 L22.103,2.222 C22.103,1.251 21.316,0.464 20.345,0.464 C19.374,0.464 18.587,1.251 18.587,2.222 L18.587,10.854 C18.587,11.824 19.374,12.611 20.345,12.611" id="Fill-4" sketch:type="MSShapeGroup"></path>
            <path d="M12.132,14.984 C12.475,15.328 12.925,15.5 13.375,15.5 C13.824,15.5 14.275,15.328 14.617,14.984 C15.304,14.298 15.304,13.186 14.617,12.5 L8.513,6.396 C7.827,5.709 6.713,5.709 6.028,6.396 C5.341,7.083 5.341,8.194 6.028,8.881 L12.132,14.984" id="Fill-5" sketch:type="MSShapeGroup"></path>
            <path d="M27.315,15.5 C27.765,15.5 28.215,15.328 28.558,14.984 L34.662,8.881 C35.349,8.194 35.349,7.083 34.662,6.396 C33.976,5.709 32.863,5.709 32.177,6.396 L26.073,12.5 C25.386,13.186 25.386,14.298 26.073,14.984 C26.416,15.328 26.866,15.5 27.315,15.5" id="Fill-6" sketch:type="MSShapeGroup"></path>
        </g>
    </g>
</svg>