<?xml version="1.0" encoding="UTF-8" standalone="no"?>
<svg width="65px" height="63px" viewBox="0 0 65 63" version="1.1" xmlns="http://www.w3.org/2000/svg" xmlns:xlink="http://www.w3.org/1999/xlink" xmlns:sketch="http://www.bohemiancoding.com/sketch/ns">
    <title>icon_github_footer</title>
    <description>Created with Sketch (http://www.bohemiancoding.com/sketch)</description>
    <defs></defs>
    <g id="Page-1" stroke="none" stroke-width="1" fill="none" fill-rule="evenodd" sketch:type="MSPage">
        <path d="M38.6161946,46.7113584 C40.3994364,49.5560457 40.5655583,50.131158 40.5519651,53.8069307 C40.5432717,56.1432949 40.5119757,58.4796592 40.4975922,60.816181 C40.4860537,62.7192026 41.4375797,63.4014298 43.2288826,62.772445 C48.3454685,60.9762232 52.7841317,58.1209819 56.3888661,54.0862169 C64.1403254,45.4100703 66.757654,35.3217401 63.837639,24.1014579 C59.5758458,7.72485495 43.7950564,-2.26864704 26.9906653,0.441674121 C12.1324767,2.83805421 0.592932475,15.6472595 0.0281812665,30.6964257 C-0.420553321,42.6515474 4.49703403,52.0967158 14.2530203,59.0311432 C16.5997488,60.6991422 19.1908394,61.9319083 21.9265556,62.8447475 C23.1927806,63.2673787 24.2930417,62.7896149 24.3538952,61.6609707 C24.4564766,59.7592093 24.38203,57.847839 24.38203,55.8970883 C23.7629059,55.9930191 23.2724432,56.0832791 22.7783452,56.1434524 C18.3709781,56.6815471 14.6061281,55.0689958 13.1559203,50.9720097 C12.5263642,49.1934304 11.3576627,47.7169779 9.68316666,46.708523 C9.37273527,46.5215445 9.08933227,46.2650989 8.84987017,45.9917985 C8.4329058,45.5157674 8.51873281,45.1632335 9.12600237,45.0265045 C9.60018474,44.9197047 10.1276336,44.8754411 10.6002354,44.9655436 C12.590853,45.3451713 13.9670883,46.5812453 15.0327342,48.2369576 C17.1757224,51.5660246 20.2300891,52.5566796 23.8953608,51.1178749 C24.1191749,51.0299777 24.4398802,50.8592241 24.4768664,50.678389 C24.7852431,49.1765755 25.3266013,47.7905406 26.4316043,46.6140099 C25.0281825,46.334251 23.7312937,46.1330956 22.4647526,45.8123811 C18.092633,44.7056325 14.7014387,42.3769868 12.9847405,38.0448205 C12.1226769,35.8692861 11.8256807,33.588212 11.7581887,31.2653946 C11.6616136,27.9390055 12.5420122,24.945775 14.7069709,22.3594236 C14.8843151,22.1473991 14.9774129,21.7266583 14.9004373,21.4639118 C14.2778358,19.3375242 14.3195639,17.2168073 14.8500159,15.088687 C15.315821,13.219375 15.5728279,13.067524 17.512708,13.4860595 C19.7897317,13.9770552 21.7933103,15.0702569 23.7184908,16.3214531 C24.1465194,16.5996367 24.5233363,16.6752472 25.0338727,16.5482846 C29.9797529,15.3188264 34.9360651,15.3163061 39.8814712,16.5479695 C40.4285196,16.6842259 40.811659,16.5607288 41.266716,16.2880584 C42.3698222,15.6267817 43.4884185,14.9812571 44.646846,14.4245748 C45.9786662,13.7842484 47.3771881,13.3227094 48.8910944,13.330743 C49.3085329,13.3331058 49.5541594,13.45298 49.7016301,13.8823846 C50.5504166,16.3540601 50.7525763,18.8408577 50.0518928,21.3881438 C49.9676464,21.6942088 50.099153,22.120778 50.2613234,22.4218022 C50.9659584,23.7304939 51.9121103,24.9430972 52.4160081,26.3195232 C53.6215377,29.6122027 53.2992518,32.9883688 52.4752809,36.3207438 C51.4613209,40.4215104 48.9981015,43.3758329 45.0492688,44.9011171 C42.9832562,45.6992804 40.770089,46.1189186 38.6161946,46.7113584" id="Imported-Layers-copy-2" fill="#DDDDDD" sketch:type="MSShapeGroup"></path>
    </g>
</svg>