<?xml version="1.0" encoding="utf-8"?>
<!-- Generator: Adobe Illustrator 16.0.0, SVG Export Plug-In . SVG Version: 6.00 Build 0)  -->
<!DOCTYPE svg PUBLIC "-//W3C//DTD SVG 1.1//EN" "http://www.w3.org/Graphics/SVG/1.1/DTD/svg11.dtd">
<svg version="1.1" xmlns="http://www.w3.org/2000/svg" xmlns:xlink="http://www.w3.org/1999/xlink" x="0px" y="0px" width="60px"
	 height="60px" viewBox="0 0 60 60" enable-background="new 0 0 60 60" xml:space="preserve">
<g id="Layer_1">
</g>
<g id="Layer_2">
	<path id="Path" sketch:type="MSShapeGroup" fill="#DDDDDD" d="M13.553,18.844H0.757V57.93h12.796V18.844z"/>
	<path id="Path_1_" sketch:type="MSShapeGroup" fill="#DDDDDD" d="M14.396,6.751C14.313,2.92,11.616,0,7.239,0
		C2.862,0,0,2.92,0,6.751c0,3.754,2.778,6.757,7.074,6.757h0.082C11.616,13.509,14.396,10.506,14.396,6.751z"/>
	<path id="Path_2_" sketch:type="MSShapeGroup" fill="#DDDDDD" d="M59.699,35.52c0-12.006-6.312-17.595-14.732-17.595
		c-6.793,0-9.835,3.794-11.534,6.456v-5.536H20.636c0.169,3.667,0,39.087,0,39.087h12.797V36.103c0-1.168,0.083-2.334,0.423-3.171
		c0.923-2.334,3.031-4.75,6.564-4.75c4.633,0,6.484,3.583,6.484,8.837v20.91h12.795V35.52z"/>
</g>
</svg>
