<?xml version="1.0" encoding="UTF-8" standalone="no"?>
<svg width="61px" height="59px" viewBox="0 0 61 59" version="1.1" xmlns="http://www.w3.org/2000/svg" xmlns:xlink="http://www.w3.org/1999/xlink" xmlns:sketch="http://www.bohemiancoding.com/sketch/ns">
    <title>Slice 1</title>
    <description>Created with Sketch (http://www.bohemiancoding.com/sketch)</description>
    <defs></defs>
    <g id="Page-1" stroke="none" stroke-width="1" fill="none" fill-rule="evenodd" sketch:type="MSPage">
        <g id="Imported-Layers" sketch:type="MSLayerGroup" fill="#DDDDDD">
            <g id="grey" transform="translate(0.000000, 1.000000)" sketch:type="MSShapeGroup">
                <path d="M1.257,18.344 L14.053,18.344 L14.053,57.43 L1.257,57.43 L1.257,18.344 Z" id="Fill-7"></path>
                <path d="M14.896,6.251 C14.813,2.42 12.116,-0.5 7.739,-0.5 C3.362,-0.5 0.5,2.42 0.5,6.251 C0.5,10.006 3.278,13.009 7.574,13.009 L7.655,13.009 C12.116,13.009 14.896,10.006 14.896,6.251" id="Fill-8"></path>
                <path d="M60.199,35.02 C60.199,23.013 53.887,17.425 45.467,17.425 C38.674,17.425 35.632,21.219 33.933,23.88 L33.933,18.345 L21.136,18.345 C21.305,22.012 21.136,57.432 21.136,57.432 L33.933,57.432 L33.933,35.603 C33.933,34.435 34.016,33.269 34.356,32.432 C35.278,30.098 37.387,27.682 40.92,27.682 C45.553,27.682 47.404,31.266 47.404,36.52 L47.404,57.43 L60.199,57.43 L60.199,35.02" id="Fill-9"></path>
            </g>
        </g>
    </g>
</svg>